<?xml version="1.0" encoding="utf-8"?>
<!-- Generator: Adobe Illustrator 25.4.1, SVG Export Plug-In . SVG Version: 6.00 Build 0)  -->
<svg version="1.1" id="Layer_1" xmlns="http://www.w3.org/2000/svg" xmlns:xlink="http://www.w3.org/1999/xlink" x="0px" y="0px"
	 viewBox="0 0 841.89 595.28" style="enable-background:new 0 0 841.89 595.28;" xml:space="preserve">
<style type="text/css">
	.st0{fill:#FFFFFF;}
</style>
<g>
	<path class="st0" d="M164.52,326.72c-8.2,0-15.73-1.33-22.57-3.97c-6.85-2.65-12.83-6.42-17.93-11.33
		c-5.1-4.9-9.05-10.6-11.85-17.1c-2.8-6.5-4.2-13.7-4.2-21.6s1.4-15.1,4.2-21.6c2.8-6.5,6.77-12.2,11.93-17.1
		c5.15-4.9,11.15-8.67,18-11.32c6.85-2.65,14.48-3.98,22.88-3.98c8.8,0,16.77,1.45,23.92,4.35c7.15,2.9,13.17,7.15,18.08,12.75
		l-12.3,12c-4.1-4.1-8.53-7.12-13.27-9.08c-4.75-1.95-9.98-2.92-15.67-2.92c-5.6,0-10.73,0.9-15.38,2.7
		c-4.65,1.8-8.68,4.35-12.08,7.65c-3.4,3.3-6.05,7.2-7.95,11.7c-1.9,4.5-2.85,9.45-2.85,14.85c0,5.3,0.95,10.23,2.85,14.78
		s4.55,8.47,7.95,11.77s7.4,5.85,12,7.65s9.7,2.7,15.3,2.7c5.2,0,10.22-0.83,15.07-2.48c4.85-1.65,9.47-4.42,13.88-8.33l10.95,14.55
		c-5.4,4.4-11.7,7.72-18.9,9.97C179.37,325.6,172.02,326.72,164.52,326.72z M187.17,310.82v-39.15h18.3v41.7L187.17,310.82z"/>
	<path class="st0" d="M265.47,326.27c-8.1,0-15.38-1.77-21.82-5.33c-6.45-3.55-11.53-8.42-15.23-14.62
		c-3.7-6.2-5.55-13.25-5.55-21.15c0-8.1,1.85-15.2,5.55-21.3c3.7-6.1,8.75-10.92,15.15-14.48c6.4-3.55,13.7-5.32,21.9-5.32
		c8.3,0,15.68,1.78,22.12,5.32c6.45,3.55,11.5,8.38,15.15,14.48s5.47,13.2,5.47,21.3c0,8-1.83,15.08-5.47,21.23
		c-3.65,6.15-8.73,11-15.23,14.55C281.02,324.5,273.67,326.27,265.47,326.27z M265.47,310.37c4.6,0,8.7-1.02,12.3-3.08
		c3.6-2.05,6.42-5,8.48-8.85c2.05-3.85,3.07-8.27,3.07-13.27c0-5.1-1.03-9.53-3.07-13.28c-2.05-3.75-4.88-6.65-8.48-8.7
		c-3.6-2.05-7.65-3.07-12.15-3.07s-8.55,1.03-12.15,3.07c-3.6,2.05-6.45,4.95-8.55,8.7s-3.15,8.17-3.15,13.28
		c0,5,1.05,9.43,3.15,13.27c2.1,3.85,4.95,6.8,8.55,8.85C257.07,309.35,261.07,310.37,265.47,310.37z"/>
	<path class="st0" d="M323.82,330.32c-1.2,0-1.8-0.65-1.8-1.95v-15.9c0-1.3,0.6-1.95,1.8-1.95h16.05c1.3,0,1.95,0.65,1.95,1.95v15.9
		c0,1.3-0.6,1.95-1.8,1.95H323.82z"/>
	<path class="st0" d="M384.27,325.22h-19.5v-105h76.65v16.5h-57.15V325.22z M382.77,268.67h52.2v16.2h-52.2V268.67z"/>
	<path class="st0" d="M492.27,326.27c-8.1,0-15.38-1.77-21.83-5.33c-6.45-3.55-11.53-8.42-15.22-14.62
		c-3.7-6.2-5.55-13.25-5.55-21.15c0-8.1,1.85-15.2,5.55-21.3c3.7-6.1,8.75-10.92,15.15-14.48c6.4-3.55,13.7-5.32,21.9-5.32
		c8.3,0,15.67,1.78,22.12,5.32c6.45,3.55,11.5,8.38,15.15,14.48s5.47,13.2,5.47,21.3c0,8-1.83,15.08-5.47,21.23
		c-3.65,6.15-8.73,11-15.23,14.55C507.82,324.5,500.47,326.27,492.27,326.27z M492.27,310.37c4.6,0,8.7-1.02,12.3-3.08
		c3.6-2.05,6.42-5,8.48-8.85c2.05-3.85,3.07-8.27,3.07-13.27c0-5.1-1.03-9.53-3.07-13.28c-2.05-3.75-4.88-6.65-8.48-8.7
		c-3.6-2.05-7.65-3.07-12.15-3.07s-8.55,1.03-12.15,3.07c-3.6,2.05-6.45,4.95-8.55,8.7c-2.1,3.75-3.15,8.17-3.15,13.28
		c0,5,1.05,9.43,3.15,13.27c2.1,3.85,4.95,6.8,8.55,8.85C483.87,309.35,487.87,310.37,492.27,310.37z"/>
	<path class="st0" d="M589.02,326.27c-8.1,0-15.38-1.77-21.83-5.33c-6.45-3.55-11.53-8.42-15.23-14.62
		c-3.7-6.2-5.55-13.25-5.55-21.15c0-8.1,1.85-15.2,5.55-21.3c3.7-6.1,8.75-10.92,15.15-14.48c6.4-3.55,13.7-5.32,21.9-5.32
		c8.3,0,15.67,1.78,22.12,5.32c6.45,3.55,11.5,8.38,15.15,14.48s5.47,13.2,5.47,21.3c0,8-1.83,15.08-5.47,21.23
		c-3.65,6.15-8.73,11-15.23,14.55C604.57,324.5,597.22,326.27,589.02,326.27z M589.02,310.37c4.6,0,8.7-1.02,12.3-3.08
		c3.6-2.05,6.43-5,8.48-8.85s3.07-8.27,3.07-13.27c0-5.1-1.03-9.53-3.07-13.28c-2.05-3.75-4.88-6.65-8.48-8.7
		c-3.6-2.05-7.65-3.07-12.15-3.07s-8.55,1.03-12.15,3.07c-3.6,2.05-6.45,4.95-8.55,8.7s-3.15,8.17-3.15,13.28
		c0,5,1.05,9.43,3.15,13.27c2.1,3.85,4.95,6.8,8.55,8.85C580.62,309.35,584.62,310.37,589.02,310.37z"/>
	<path class="st0" d="M683.67,326.27c-7.7,0-14.62-1.7-20.78-5.1c-6.15-3.4-10.98-8.17-14.47-14.33c-3.5-6.15-5.25-13.37-5.25-21.68
		c0-8.2,1.75-15.4,5.25-21.6s8.33-11,14.47-14.4c6.15-3.4,13.07-5.1,20.78-5.1c6.7,0,12.7,1.48,18,4.42c5.3,2.95,9.5,7.45,12.6,13.5
		s4.65,13.78,4.65,23.17c0,9.3-1.5,17-4.5,23.1s-7.12,10.63-12.38,13.58C696.79,324.8,690.67,326.27,683.67,326.27z M685.92,310.37
		c4.5,0,8.52-1.02,12.08-3.08c3.55-2.05,6.4-5,8.55-8.85c2.15-3.85,3.22-8.27,3.22-13.27c0-5.1-1.08-9.53-3.22-13.28
		c-2.15-3.75-5-6.65-8.55-8.7c-3.55-2.05-7.58-3.07-12.08-3.07s-8.53,1.03-12.08,3.07c-3.55,2.05-6.4,4.95-8.55,8.7
		c-2.15,3.75-3.23,8.17-3.23,13.28c0,5,1.07,9.43,3.23,13.27c2.15,3.85,5,6.8,8.55,8.85C677.39,309.35,681.42,310.37,685.92,310.37z
		 M710.37,325.22v-18.9l0.45-21.3l-1.5-21.3v-49.8h18.9v111.3L710.37,325.22L710.37,325.22z"/>
</g>
</svg>
