<?xml version="1.0" encoding="utf-8"?>
<!-- Generator: Adobe Illustrator 25.4.1, SVG Export Plug-In . SVG Version: 6.00 Build 0)  -->
<svg version="1.1" id="Layer_1" xmlns="http://www.w3.org/2000/svg" xmlns:xlink="http://www.w3.org/1999/xlink" x="0px" y="0px"
	 viewBox="0 0 595.3 841.9" style="enable-background:new 0 0 595.3 841.9;" xml:space="preserve">
<style type="text/css">
	.st0{fill:#EEEEEE;}
</style>
<g>
	<path class="st0" d="M4.2,369.4V366h12.4v4.7h-0.9L4.2,369.4z M16.5,418.6v4.7H4.2v-3.4l11.5-1.3H16.5z M12.6,392.5
		c0-8.8,0-17.7-0.3-26.5h8.5c-0.3,8.6-0.3,17.5-0.3,26.5v3.3c0,9.8,0,18.7,0.3,27.6h-8.5c0.3-8.6,0.3-17.5,0.3-26.5V392.5z M41,366
		l4,4.3H16.5V366h31.5l0.6,15.2h-4.9L41,366z M36.5,396h-20v-3.9h20V396z M50.5,408.1l-0.6,15.2H16.5V419h30.2l-4,4.3l2.7-15.2H50.5
		z M33.7,392.9l1.3-9.1h4v20.3h-4l-1.3-9.5V392.9z"/>
	<path class="st0" d="M72.1,400.9c3.7-1.3,9.3-2.8,13.7-3.6v3.1c-4,0.8-9.2,2.4-11.8,3.4c-8,3-8.8,6.2-8.8,8.7
		c0,4.5,3.1,6.3,7.2,6.3c3.1,0,4.9-1.1,10.4-5l1.8-1.3l1.2,1.8l-2.6,2.5c-5.3,5.1-8.3,7.5-13.7,7.5c-6.4,0-11.8-3.6-11.8-10.7
		C57.6,408.9,60.3,405.1,72.1,400.9z M82.3,415.4v-19.5c0-8.4-2.5-10.4-8.3-10.4c-2,0-4.7,0.3-8,1.5l3.5-2.7l-2.3,7.4
		c-0.8,2.5-2.1,3.9-4.5,3.9c-2.4,0-3.8-1.3-4-3.4c1.7-6.5,8.2-10.5,17.1-10.5c9.1,0,13.5,4,13.5,14.8v18.1c0,3.9,1.2,5.2,3.3,5.2
		c1.5,0,2.5-0.8,3.4-1.9l1.8,1.9c-2.1,3.3-4.5,4.4-7.5,4.4C85.4,424.2,82.3,420.7,82.3,415.4z"/>
	<path class="st0" d="M113.8,408.2c0,7.6,2.3,10.3,7.2,10.3c4.5,0,9.1-2.1,13.5-6.4h1.9v4.4h-4.5l3.1-1.3c-5,6.6-11,9.3-16.8,9.3
		c-7.1,0-11.5-4.1-11.4-15.4l0.3-22.6l1.9,1.6l-8.2-1.7v-3l12.7-1.1l0.9,0.9l-0.4,12V408.2z M134.8,424l-1.2-10l0.3-27.6l1.9,1.6
		l-8.2-1.7v-3l12.5-1.1l0.9,0.9l-0.3,12v25.6l-2.1-2.1l8.2,1.7v3L134.8,424z"/>
	<path class="st0" d="M153.8,369.4V366h12.4v4.7h-0.9L153.8,369.4z M166.2,418.6v4.7h-12.4v-3.4l11.5-1.3H166.2z M162.2,392.5
		c0-8.8,0-17.7-0.3-26.5h8.5c-0.3,8.6-0.3,17.5-0.3,26.5v3.3c0,9.8,0,18.7,0.3,27.6H162c0.3-8.6,0.3-17.5,0.3-27.6V392.5z
		 M166.2,419.4h11.4c13.9,0,21.5-9.1,21.5-24.7c0-16.2-7.6-24.8-20.7-24.8h-12.2V366h13.7c16.8,0,28.4,10.1,28.4,28.8
		c0,18.5-13.1,28.6-30.2,28.6h-11.9V419.4z"/>
	<path class="st0" d="M253.1,398c0,2-0.3,3.7-0.6,4.8h-32.6v-3.6h21c4.2,0,5.2-2,5.2-4.4c0-4.9-4.2-9.3-9.8-9.3
		c-5.7,0-12.2,4.6-12.2,16.9c0,10.9,5.7,16.7,14.5,16.7c5.7,0,9.2-2.5,12.4-6.1l2,1.5c-3.2,6.1-8.8,9.9-16.9,9.9
		c-11.8,0-19.5-8-19.5-21c0-13.1,9.2-21.8,20.1-21.8C245.9,381.6,253.1,387.6,253.1,398z"/>
	<path class="st0" d="M260.7,369.4V366H273v4.7h-0.9L260.7,369.4z M273.9,418.6l11.5,1.3v3.4h-24.7v-3.4l11.5-1.3H273.9z M269,392.5
		c0-8.8,0-17.7-0.3-26.5h8.5c-0.3,8.6-0.3,17.5-0.3,26.5v5.2c0,8.7,0,16.8,0.3,25.6h-8.5c0.3-8.6,0.3-17.5,0.3-26.5V392.5z
		 M281.8,400.6H273v-3.9h10.1c10.9,0,15.1-5.6,15.1-13.7c0-8.3-4.8-13.1-15.5-13.1H273V366h11.4c14.7,0,22.2,7,22.2,17
		C306.6,392.6,299.8,400.6,281.8,400.6z"/>
	<path class="st0" d="M347.4,398c0,2-0.3,3.7-0.6,4.8h-32.6v-3.6h21c4.2,0,5.2-2,5.2-4.4c0-4.9-4.2-9.3-9.8-9.3
		c-5.7,0-12.2,4.6-12.2,16.9c0,10.9,5.7,16.7,14.5,16.7c5.7,0,9.2-2.5,12.4-6.1l2,1.5c-3.2,6.1-8.8,9.9-16.9,9.9
		c-11.8,0-19.5-8-19.5-21c0-13.1,9.2-21.8,20.1-21.8C340.2,381.6,347.4,387.6,347.4,398z"/>
	<path class="st0" d="M362.3,405.3v-4c0-4.7-0.1-7.4-0.3-10.8l-7.1-0.8v-3l12-5.1l1.3,0.9l1.1,10.7v12.2c0,5.3,0.1,14.1,0.3,18H362
		C362.2,419.5,362.3,410.6,362.3,405.3z M355.6,420.3l9.7-1.7h1.8l9.7,1.7v3h-21.2V420.3z M365.8,393.8h5l-2.2,0.6
		c2.8-8,8.2-12.8,13.4-12.8c2.6,0,5.2,1.2,6.3,2.9c0,4-1.6,6.2-5.1,6.2c-2,0-3.7-0.8-5.3-2.1l-2.4-2l4.3-0.9
		c-5.5,2.7-8.7,7-10.7,13.6h-3.4V393.8z"/>
	<path class="st0" d="M399.5,387.2H392v-3.7l10-1.3l-2.6,1.3c0.9-9.8,2.3-15.1,6.3-19.2c3.8-4,8.3-5.2,12.3-5.2
		c4.2,0,7.5,1.3,8.4,4.5c-0.2,2.1-2.1,3.8-5.3,3.8c-2.2,0-4.2-0.9-6.3-2.4l-4.3-3.2l7.4-1.7l2,2.6c-1-0.5-2.4-1-3.4-1
		c-2.7,0-5.7,1.9-7.3,4.8c-2,3.4-3.4,9.2-2.7,19.6v19.3c0,6,0.1,12,0.3,18h-7.6c0.2-6,0.3-12,0.3-18V387.2z M414.7,420.3v3h-22.6v-3
		l10-1.7h1.8L414.7,420.3z M418.7,382.7v4.5H403v-4.5H418.7z"/>
	<path class="st0" d="M434.7,408.2c0,7.6,2.3,10.3,7.2,10.3c4.5,0,9.1-2.1,13.5-6.4h1.9v4.4h-4.5l3.1-1.3c-5,6.6-11,9.3-16.8,9.3
		c-7.1,0-11.5-4.1-11.4-15.4l0.3-22.6l1.9,1.6l-8.2-1.7v-3l12.7-1.1l0.9,0.9l-0.4,12V408.2z M455.7,424l-1.2-10l0.3-27.6l1.9,1.6
		l-8.2-1.7v-3l12.5-1.1l0.9,0.9l-0.3,12v25.6l-2.1-2.1l8.2,1.7v3L455.7,424z"/>
	<path class="st0" d="M480.9,423.3c0.2-3.9,0.3-12.7,0.3-18v-4c0-4.7-0.1-7.4-0.3-10.8l-7.1-0.8v-3l12-5.1l1.3,0.9l1.1,9.9v12.9
		c0,5.3,0.1,14.1,0.3,18H480.9z M494.7,420.3v3h-20.3v-3l9.7-1.7h1.8L494.7,420.3z M514.8,397.5v7.9c0,5.5,0.1,14.1,0.3,18h-7.6
		c0.2-3.9,0.3-12.5,0.3-18v-7.2c0-8-2.1-10.5-7.4-10.5c-4.3,0-7.8,1.7-12.7,5.9h-1.9v-3.9h4.5l-3.8,1.5c4.2-5.4,11-9.6,17.1-9.6
		C511.1,381.6,514.8,386.2,514.8,397.5z M512.4,418.6l8.8,1.7v3h-20.3v-3l9.7-1.7H512.4z M541.3,396.5v8.8c0,5.5,0.1,14.1,0.3,18
		h-7.6c0.2-3.9,0.3-12.5,0.3-18V398c0-8-2.3-10.4-7.5-10.4c-4,0-7.7,1.5-12.6,5.9h-2.1v-3h4.8l-4.1,0.7c4.6-6.3,11.1-9.6,17.4-9.6
		C537.1,381.6,541.3,385.9,541.3,396.5z M538.9,418.6l8.8,1.7v3h-20.3v-3l9.7-1.7H538.9z"/>
	<path class="st0" d="M590.9,398c0,2-0.3,3.7-0.6,4.8h-32.6v-3.6h21c4.2,0,5.2-2,5.2-4.4c0-4.9-4.2-9.3-9.8-9.3
		c-5.7,0-12.2,4.6-12.2,16.9c0,10.9,5.7,16.7,14.5,16.7c5.7,0,9.2-2.5,12.4-6.1l2,1.5c-3.2,6.1-8.8,9.9-16.9,9.9
		c-11.8,0-19.5-8-19.5-21c0-13.1,9.2-21.8,20.1-21.8C583.7,381.6,590.9,387.6,590.9,398z"/>
</g>
</svg>
